<mxfile host="app.diagrams.net" modified="2022-01-13T03:55:57.474Z" agent="5.0 (Windows NT 10.0; Win64; x64) AppleWebKit/537.36 (KHTML, like Gecko) Chrome/97.0.4692.71 Safari/537.36" etag="AAg2MB-4GqD6-C--1__1" version="16.2.4" type="github">
  <diagram id="iW3pmsvkDliE4QAZMsDm" name="Page-1">
    <mxGraphModel dx="813" dy="504" grid="0" gridSize="10" guides="1" tooltips="1" connect="1" arrows="1" fold="1" page="0" pageScale="1" pageWidth="827" pageHeight="1169" math="0" shadow="0">
      <root>
        <mxCell id="0" />
        <mxCell id="1" parent="0" />
        <mxCell id="2zrxu1d7xKZmnn6zM3dK-3" value="" style="edgeStyle=orthogonalEdgeStyle;rounded=0;orthogonalLoop=1;jettySize=auto;html=1;" edge="1" parent="1" source="2zrxu1d7xKZmnn6zM3dK-1" target="2zrxu1d7xKZmnn6zM3dK-2">
          <mxGeometry relative="1" as="geometry" />
        </mxCell>
        <mxCell id="2zrxu1d7xKZmnn6zM3dK-1" value="（仅支持新路由）&lt;br&gt;软件启动" style="ellipse;whiteSpace=wrap;html=1;" vertex="1" parent="1">
          <mxGeometry x="230" y="80" width="120" height="80" as="geometry" />
        </mxCell>
        <mxCell id="2zrxu1d7xKZmnn6zM3dK-5" value="" style="edgeStyle=orthogonalEdgeStyle;rounded=0;orthogonalLoop=1;jettySize=auto;html=1;" edge="1" parent="1" source="2zrxu1d7xKZmnn6zM3dK-2" target="2zrxu1d7xKZmnn6zM3dK-4">
          <mxGeometry relative="1" as="geometry" />
        </mxCell>
        <mxCell id="2zrxu1d7xKZmnn6zM3dK-2" value="启动定时任务" style="whiteSpace=wrap;html=1;" vertex="1" parent="1">
          <mxGeometry x="230" y="190" width="120" height="60" as="geometry" />
        </mxCell>
        <mxCell id="2zrxu1d7xKZmnn6zM3dK-7" value="" style="edgeStyle=orthogonalEdgeStyle;rounded=0;orthogonalLoop=1;jettySize=auto;html=1;" edge="1" parent="1" source="2zrxu1d7xKZmnn6zM3dK-4" target="2zrxu1d7xKZmnn6zM3dK-6">
          <mxGeometry relative="1" as="geometry" />
        </mxCell>
        <mxCell id="2zrxu1d7xKZmnn6zM3dK-4" value="等待5秒&lt;br&gt;检测是否连接网线" style="whiteSpace=wrap;html=1;" vertex="1" parent="1">
          <mxGeometry x="230" y="280" width="120" height="60" as="geometry" />
        </mxCell>
        <mxCell id="2zrxu1d7xKZmnn6zM3dK-8" style="edgeStyle=orthogonalEdgeStyle;rounded=0;orthogonalLoop=1;jettySize=auto;html=1;exitX=0;exitY=0.5;exitDx=0;exitDy=0;entryX=0;entryY=0.5;entryDx=0;entryDy=0;" edge="1" parent="1" source="2zrxu1d7xKZmnn6zM3dK-6" target="2zrxu1d7xKZmnn6zM3dK-4">
          <mxGeometry relative="1" as="geometry" />
        </mxCell>
        <mxCell id="2zrxu1d7xKZmnn6zM3dK-9" value="检测异常" style="edgeLabel;html=1;align=center;verticalAlign=middle;resizable=0;points=[];" vertex="1" connectable="0" parent="2zrxu1d7xKZmnn6zM3dK-8">
          <mxGeometry x="-0.21" y="1" relative="1" as="geometry">
            <mxPoint as="offset" />
          </mxGeometry>
        </mxCell>
        <mxCell id="2zrxu1d7xKZmnn6zM3dK-11" value="是" style="edgeStyle=orthogonalEdgeStyle;rounded=0;orthogonalLoop=1;jettySize=auto;html=1;" edge="1" parent="1" source="2zrxu1d7xKZmnn6zM3dK-6" target="2zrxu1d7xKZmnn6zM3dK-10">
          <mxGeometry relative="1" as="geometry" />
        </mxCell>
        <mxCell id="2zrxu1d7xKZmnn6zM3dK-20" value="否" style="edgeStyle=orthogonalEdgeStyle;rounded=0;orthogonalLoop=1;jettySize=auto;html=1;" edge="1" parent="1" source="2zrxu1d7xKZmnn6zM3dK-6" target="2zrxu1d7xKZmnn6zM3dK-19">
          <mxGeometry relative="1" as="geometry">
            <Array as="points">
              <mxPoint x="356" y="450" />
              <mxPoint x="356" y="450" />
            </Array>
          </mxGeometry>
        </mxCell>
        <mxCell id="2zrxu1d7xKZmnn6zM3dK-6" value="连接" style="rhombus;whiteSpace=wrap;html=1;" vertex="1" parent="1">
          <mxGeometry x="250" y="410" width="80" height="80" as="geometry" />
        </mxCell>
        <mxCell id="2zrxu1d7xKZmnn6zM3dK-13" value="" style="edgeStyle=orthogonalEdgeStyle;rounded=0;orthogonalLoop=1;jettySize=auto;html=1;" edge="1" parent="1" source="2zrxu1d7xKZmnn6zM3dK-10" target="2zrxu1d7xKZmnn6zM3dK-12">
          <mxGeometry relative="1" as="geometry" />
        </mxCell>
        <mxCell id="2zrxu1d7xKZmnn6zM3dK-10" value="检测当前是否是有线连接" style="whiteSpace=wrap;html=1;" vertex="1" parent="1">
          <mxGeometry x="230" y="530" width="120" height="60" as="geometry" />
        </mxCell>
        <mxCell id="2zrxu1d7xKZmnn6zM3dK-15" value="否" style="edgeStyle=orthogonalEdgeStyle;rounded=0;orthogonalLoop=1;jettySize=auto;html=1;" edge="1" parent="1" source="2zrxu1d7xKZmnn6zM3dK-12" target="2zrxu1d7xKZmnn6zM3dK-14">
          <mxGeometry relative="1" as="geometry" />
        </mxCell>
        <mxCell id="2zrxu1d7xKZmnn6zM3dK-41" style="edgeStyle=orthogonalEdgeStyle;rounded=0;orthogonalLoop=1;jettySize=auto;html=1;exitX=0;exitY=0.5;exitDx=0;exitDy=0;entryX=0;entryY=0.5;entryDx=0;entryDy=0;" edge="1" parent="1" source="2zrxu1d7xKZmnn6zM3dK-12" target="2zrxu1d7xKZmnn6zM3dK-4">
          <mxGeometry relative="1" as="geometry">
            <Array as="points">
              <mxPoint x="138" y="660" />
              <mxPoint x="138" y="310" />
            </Array>
          </mxGeometry>
        </mxCell>
        <mxCell id="2zrxu1d7xKZmnn6zM3dK-42" value="是 or 检测异常" style="edgeLabel;html=1;align=center;verticalAlign=middle;resizable=0;points=[];" vertex="1" connectable="0" parent="2zrxu1d7xKZmnn6zM3dK-41">
          <mxGeometry x="-0.8755" y="1" relative="1" as="geometry">
            <mxPoint x="-22" y="-1" as="offset" />
          </mxGeometry>
        </mxCell>
        <mxCell id="2zrxu1d7xKZmnn6zM3dK-12" value="有线连接" style="rhombus;whiteSpace=wrap;html=1;" vertex="1" parent="1">
          <mxGeometry x="250" y="620" width="80" height="80" as="geometry" />
        </mxCell>
        <mxCell id="2zrxu1d7xKZmnn6zM3dK-43" style="edgeStyle=orthogonalEdgeStyle;rounded=0;orthogonalLoop=1;jettySize=auto;html=1;exitX=0;exitY=0.5;exitDx=0;exitDy=0;entryX=0;entryY=0.5;entryDx=0;entryDy=0;" edge="1" parent="1" source="2zrxu1d7xKZmnn6zM3dK-14" target="2zrxu1d7xKZmnn6zM3dK-4">
          <mxGeometry relative="1" as="geometry">
            <Array as="points">
              <mxPoint x="100" y="778" />
              <mxPoint x="100" y="310" />
            </Array>
          </mxGeometry>
        </mxCell>
        <mxCell id="2zrxu1d7xKZmnn6zM3dK-14" value="切换成有线连接方式" style="whiteSpace=wrap;html=1;" vertex="1" parent="1">
          <mxGeometry x="230" y="748" width="120" height="60" as="geometry" />
        </mxCell>
        <mxCell id="2zrxu1d7xKZmnn6zM3dK-22" value="" style="edgeStyle=orthogonalEdgeStyle;rounded=0;orthogonalLoop=1;jettySize=auto;html=1;" edge="1" parent="1" source="2zrxu1d7xKZmnn6zM3dK-19" target="2zrxu1d7xKZmnn6zM3dK-21">
          <mxGeometry relative="1" as="geometry" />
        </mxCell>
        <mxCell id="2zrxu1d7xKZmnn6zM3dK-19" value="判断当前是否是WIFI中继模式" style="whiteSpace=wrap;html=1;" vertex="1" parent="1">
          <mxGeometry x="390" y="420" width="120" height="60" as="geometry" />
        </mxCell>
        <mxCell id="2zrxu1d7xKZmnn6zM3dK-23" style="edgeStyle=orthogonalEdgeStyle;rounded=0;orthogonalLoop=1;jettySize=auto;html=1;exitX=0.5;exitY=0;exitDx=0;exitDy=0;entryX=1;entryY=0.5;entryDx=0;entryDy=0;" edge="1" parent="1" source="2zrxu1d7xKZmnn6zM3dK-21" target="2zrxu1d7xKZmnn6zM3dK-4">
          <mxGeometry relative="1" as="geometry" />
        </mxCell>
        <mxCell id="2zrxu1d7xKZmnn6zM3dK-24" value="是 or 检测异常" style="edgeLabel;html=1;align=center;verticalAlign=middle;resizable=0;points=[];" vertex="1" connectable="0" parent="2zrxu1d7xKZmnn6zM3dK-23">
          <mxGeometry x="-0.8054" relative="1" as="geometry">
            <mxPoint as="offset" />
          </mxGeometry>
        </mxCell>
        <mxCell id="2zrxu1d7xKZmnn6zM3dK-26" value="否" style="edgeStyle=orthogonalEdgeStyle;rounded=0;orthogonalLoop=1;jettySize=auto;html=1;" edge="1" parent="1" source="2zrxu1d7xKZmnn6zM3dK-21" target="2zrxu1d7xKZmnn6zM3dK-25">
          <mxGeometry relative="1" as="geometry" />
        </mxCell>
        <mxCell id="2zrxu1d7xKZmnn6zM3dK-21" value="WIFI中继模式" style="rhombus;whiteSpace=wrap;html=1;" vertex="1" parent="1">
          <mxGeometry x="548" y="410" width="80" height="80" as="geometry" />
        </mxCell>
        <mxCell id="2zrxu1d7xKZmnn6zM3dK-28" value="" style="edgeStyle=orthogonalEdgeStyle;rounded=0;orthogonalLoop=1;jettySize=auto;html=1;" edge="1" parent="1" source="2zrxu1d7xKZmnn6zM3dK-25" target="2zrxu1d7xKZmnn6zM3dK-27">
          <mxGeometry relative="1" as="geometry" />
        </mxCell>
        <mxCell id="2zrxu1d7xKZmnn6zM3dK-25" value="获取历史连接WIFI" style="whiteSpace=wrap;html=1;" vertex="1" parent="1">
          <mxGeometry x="681" y="420" width="120" height="60" as="geometry" />
        </mxCell>
        <mxCell id="2zrxu1d7xKZmnn6zM3dK-29" style="edgeStyle=orthogonalEdgeStyle;rounded=0;orthogonalLoop=1;jettySize=auto;html=1;exitX=0.5;exitY=0;exitDx=0;exitDy=0;entryX=1;entryY=0.5;entryDx=0;entryDy=0;" edge="1" parent="1" source="2zrxu1d7xKZmnn6zM3dK-27" target="2zrxu1d7xKZmnn6zM3dK-4">
          <mxGeometry relative="1" as="geometry" />
        </mxCell>
        <mxCell id="2zrxu1d7xKZmnn6zM3dK-30" value="否" style="edgeLabel;html=1;align=center;verticalAlign=middle;resizable=0;points=[];" vertex="1" connectable="0" parent="2zrxu1d7xKZmnn6zM3dK-29">
          <mxGeometry x="-0.8986" y="1" relative="1" as="geometry">
            <mxPoint as="offset" />
          </mxGeometry>
        </mxCell>
        <mxCell id="2zrxu1d7xKZmnn6zM3dK-32" value="是" style="edgeStyle=orthogonalEdgeStyle;rounded=0;orthogonalLoop=1;jettySize=auto;html=1;" edge="1" parent="1" source="2zrxu1d7xKZmnn6zM3dK-27" target="2zrxu1d7xKZmnn6zM3dK-31">
          <mxGeometry relative="1" as="geometry" />
        </mxCell>
        <mxCell id="2zrxu1d7xKZmnn6zM3dK-27" value="获取成功" style="rhombus;whiteSpace=wrap;html=1;" vertex="1" parent="1">
          <mxGeometry x="830" y="410" width="80" height="80" as="geometry" />
        </mxCell>
        <mxCell id="2zrxu1d7xKZmnn6zM3dK-34" value="" style="edgeStyle=orthogonalEdgeStyle;rounded=0;orthogonalLoop=1;jettySize=auto;html=1;" edge="1" parent="1" source="2zrxu1d7xKZmnn6zM3dK-31" target="2zrxu1d7xKZmnn6zM3dK-33">
          <mxGeometry relative="1" as="geometry" />
        </mxCell>
        <mxCell id="2zrxu1d7xKZmnn6zM3dK-31" value="获取当前可连接的WIFI列表，根据强度自动选择已保存" style="whiteSpace=wrap;html=1;" vertex="1" parent="1">
          <mxGeometry x="950" y="420" width="120" height="60" as="geometry" />
        </mxCell>
        <mxCell id="2zrxu1d7xKZmnn6zM3dK-35" style="edgeStyle=orthogonalEdgeStyle;rounded=0;orthogonalLoop=1;jettySize=auto;html=1;exitX=0.5;exitY=0;exitDx=0;exitDy=0;entryX=1;entryY=0.5;entryDx=0;entryDy=0;" edge="1" parent="1" source="2zrxu1d7xKZmnn6zM3dK-33" target="2zrxu1d7xKZmnn6zM3dK-4">
          <mxGeometry relative="1" as="geometry" />
        </mxCell>
        <mxCell id="2zrxu1d7xKZmnn6zM3dK-36" value="否" style="edgeLabel;html=1;align=center;verticalAlign=middle;resizable=0;points=[];" vertex="1" connectable="0" parent="2zrxu1d7xKZmnn6zM3dK-35">
          <mxGeometry x="-0.9303" y="-1" relative="1" as="geometry">
            <mxPoint as="offset" />
          </mxGeometry>
        </mxCell>
        <mxCell id="2zrxu1d7xKZmnn6zM3dK-38" value="是" style="edgeStyle=orthogonalEdgeStyle;rounded=0;orthogonalLoop=1;jettySize=auto;html=1;" edge="1" parent="1" source="2zrxu1d7xKZmnn6zM3dK-33" target="2zrxu1d7xKZmnn6zM3dK-37">
          <mxGeometry relative="1" as="geometry" />
        </mxCell>
        <mxCell id="2zrxu1d7xKZmnn6zM3dK-33" value="有匹配的WIFI" style="rhombus;whiteSpace=wrap;html=1;" vertex="1" parent="1">
          <mxGeometry x="1110" y="410" width="80" height="80" as="geometry" />
        </mxCell>
        <mxCell id="2zrxu1d7xKZmnn6zM3dK-39" style="edgeStyle=orthogonalEdgeStyle;rounded=0;orthogonalLoop=1;jettySize=auto;html=1;exitX=0.5;exitY=0;exitDx=0;exitDy=0;entryX=1;entryY=0.5;entryDx=0;entryDy=0;" edge="1" parent="1" source="2zrxu1d7xKZmnn6zM3dK-37" target="2zrxu1d7xKZmnn6zM3dK-4">
          <mxGeometry relative="1" as="geometry" />
        </mxCell>
        <mxCell id="2zrxu1d7xKZmnn6zM3dK-37" value="切换到WIFI中继模式" style="whiteSpace=wrap;html=1;" vertex="1" parent="1">
          <mxGeometry x="1240" y="420" width="120" height="60" as="geometry" />
        </mxCell>
      </root>
    </mxGraphModel>
  </diagram>
</mxfile>
